<mxfile host="app.diagrams.net" modified="2022-12-17T16:20:58.288Z" agent="5.0 (X11; Linux x86_64) AppleWebKit/537.36 (KHTML, like Gecko) Chrome/108.0.0.0 Safari/537.36" version="20.7.4" etag="5GSJGLWhfb1pPX-FfZQM" type="github">
  <diagram id="u_SH0tvSSF3colh3-s0D" name="Page-1">
    <mxGraphModel dx="1174" dy="728" grid="1" gridSize="10" guides="1" tooltips="1" connect="1" arrows="1" fold="1" page="1" pageScale="1" pageWidth="850" pageHeight="1100" math="0" shadow="0">
      <root>
        <mxCell id="0" />
        <mxCell id="1" parent="0" />
        <mxCell id="DrOO1ddg_FIwnmZJTfb4-4" style="edgeStyle=orthogonalEdgeStyle;rounded=0;orthogonalLoop=1;jettySize=auto;html=1;" edge="1" parent="1" source="DrOO1ddg_FIwnmZJTfb4-2" target="DrOO1ddg_FIwnmZJTfb4-3">
          <mxGeometry relative="1" as="geometry" />
        </mxCell>
        <mxCell id="DrOO1ddg_FIwnmZJTfb4-2" value="缓存红包数据" style="rounded=1;whiteSpace=wrap;html=1;" vertex="1" parent="1">
          <mxGeometry x="240" y="60" width="120" height="60" as="geometry" />
        </mxCell>
        <mxCell id="DrOO1ddg_FIwnmZJTfb4-6" style="edgeStyle=orthogonalEdgeStyle;rounded=0;orthogonalLoop=1;jettySize=auto;html=1;" edge="1" parent="1" source="DrOO1ddg_FIwnmZJTfb4-3" target="DrOO1ddg_FIwnmZJTfb4-7">
          <mxGeometry relative="1" as="geometry">
            <mxPoint x="300" y="260" as="targetPoint" />
          </mxGeometry>
        </mxCell>
        <mxCell id="DrOO1ddg_FIwnmZJTfb4-3" value="接受抢红包请求" style="rounded=1;whiteSpace=wrap;html=1;" vertex="1" parent="1">
          <mxGeometry x="240" y="160" width="120" height="60" as="geometry" />
        </mxCell>
        <mxCell id="DrOO1ddg_FIwnmZJTfb4-10" value="ok" style="edgeStyle=orthogonalEdgeStyle;rounded=0;orthogonalLoop=1;jettySize=auto;html=1;" edge="1" parent="1" source="DrOO1ddg_FIwnmZJTfb4-7" target="DrOO1ddg_FIwnmZJTfb4-9">
          <mxGeometry relative="1" as="geometry" />
        </mxCell>
        <mxCell id="DrOO1ddg_FIwnmZJTfb4-19" value="failed" style="edgeStyle=orthogonalEdgeStyle;rounded=0;orthogonalLoop=1;jettySize=auto;html=1;entryX=1;entryY=0.5;entryDx=0;entryDy=0;" edge="1" parent="1" source="DrOO1ddg_FIwnmZJTfb4-7" target="DrOO1ddg_FIwnmZJTfb4-15">
          <mxGeometry relative="1" as="geometry">
            <Array as="points">
              <mxPoint x="400" y="290" />
              <mxPoint x="400" y="500" />
            </Array>
          </mxGeometry>
        </mxCell>
        <mxCell id="DrOO1ddg_FIwnmZJTfb4-7" value="分配金额" style="rhombus;whiteSpace=wrap;html=1;" vertex="1" parent="1">
          <mxGeometry x="235" y="260" width="130" height="60" as="geometry" />
        </mxCell>
        <mxCell id="DrOO1ddg_FIwnmZJTfb4-16" style="edgeStyle=orthogonalEdgeStyle;rounded=0;orthogonalLoop=1;jettySize=auto;html=1;" edge="1" parent="1" source="DrOO1ddg_FIwnmZJTfb4-9" target="DrOO1ddg_FIwnmZJTfb4-15">
          <mxGeometry relative="1" as="geometry" />
        </mxCell>
        <mxCell id="DrOO1ddg_FIwnmZJTfb4-9" value="更新红包缓存" style="rounded=1;whiteSpace=wrap;html=1;" vertex="1" parent="1">
          <mxGeometry x="240" y="370" width="120" height="60" as="geometry" />
        </mxCell>
        <mxCell id="DrOO1ddg_FIwnmZJTfb4-17" style="edgeStyle=orthogonalEdgeStyle;rounded=0;orthogonalLoop=1;jettySize=auto;html=1;" edge="1" parent="1" source="DrOO1ddg_FIwnmZJTfb4-15" target="DrOO1ddg_FIwnmZJTfb4-3">
          <mxGeometry relative="1" as="geometry">
            <Array as="points">
              <mxPoint x="210" y="500" />
              <mxPoint x="210" y="190" />
            </Array>
          </mxGeometry>
        </mxCell>
        <mxCell id="DrOO1ddg_FIwnmZJTfb4-15" value="响应结果" style="rounded=1;whiteSpace=wrap;html=1;" vertex="1" parent="1">
          <mxGeometry x="240" y="470" width="120" height="60" as="geometry" />
        </mxCell>
      </root>
    </mxGraphModel>
  </diagram>
</mxfile>
